# xmcd CD database file
#
# Track frame offsets:
#	150
#	12662
#	26565
#	52725
#	65875
#	78087
#	91752
#	106915
#	123260
#	140275
#
# Disc length: 2053 seconds
#
# Revision: 2
# Processed by: cddbd v1.5.1PL2 Copyright (c) Steve Scherf et al.
# Submitted via: CDex 1.51
#
DISCID=7608030a
DTITLE=The Legendary Blues Band - Red Hot N' Blue
DYEAR=1994
DGENRE=Blues
TTITLE0=Money
TTITLE1=Crazy 'Bout That Thing
TTITLE2=I Almost Lost My Mind
TTITLE3=Streamlined Baby
TTITLE4=Do The Get Down
TTITLE5=Loverboy
TTITLE6=Come Back Baby
TTITLE7=How Long
TTITLE8=High Heel Sneakers
TTITLE9=Blues For Big Nate
EXTD=YEAR: 1994
EXTT0=
EXTT1=
EXTT2=
EXTT3=
EXTT4=
EXTT5=
EXTT6=
EXTT7=
EXTT8=
EXTT9=
PLAYORDER=
